<?xml version="1.0" encoding="UTF-8"?>
<!-- Do not edit this file with editors other than draw.io -->
<!DOCTYPE svg PUBLIC "-//W3C//DTD SVG 1.1//EN" "http://www.w3.org/Graphics/SVG/1.1/DTD/svg11.dtd">
<svg xmlns="http://www.w3.org/2000/svg" style="background: #FFFFFF; background-color: light-dark(#FFFFFF, #000000); color-scheme: light dark;" xmlns:xlink="http://www.w3.org/1999/xlink" version="1.1" width="2691px" height="1721px" viewBox="0 0 2691 1721" content="&lt;mxfile host=&quot;app.diagrams.net&quot; agent=&quot;Mozilla/5.0 (Macintosh; Intel Mac OS X 10_15_7) AppleWebKit/537.36 (KHTML, like Gecko) Chrome/146.0.0.0 Safari/537.36&quot; version=&quot;29.6.4&quot;&gt;&#10;  &lt;diagram name=&quot;Page-1&quot; id=&quot;dQz-Ghh5sEeEeMp5tp8N&quot;&gt;&#10;    &lt;mxGraphModel dx=&quot;4777&quot; dy=&quot;2147&quot; grid=&quot;1&quot; gridSize=&quot;10&quot; guides=&quot;1&quot; tooltips=&quot;1&quot; connect=&quot;1&quot; arrows=&quot;1&quot; fold=&quot;1&quot; page=&quot;1&quot; pageScale=&quot;1&quot; pageWidth=&quot;827&quot; pageHeight=&quot;1169&quot; background=&quot;light-dark(#FFFFFF,#000000)&quot; math=&quot;0&quot; shadow=&quot;0&quot;&gt;&#10;      &lt;root&gt;&#10;        &lt;mxCell id=&quot;0&quot; /&gt;&#10;        &lt;mxCell id=&quot;1&quot; parent=&quot;0&quot; /&gt;&#10;        &lt;mxCell id=&quot;t1XGjNwIdXhra_N-eCPQ-32&quot; parent=&quot;1&quot; style=&quot;points=[[0,0],[0.25,0],[0.5,0],[0.75,0],[1,0],[1,0.25],[1,0.5],[1,0.75],[1,1],[0.75,1],[0.5,1],[0.25,1],[0,1],[0,0.75],[0,0.5],[0,0.25]];outlineConnect=0;gradientColor=none;html=1;whiteSpace=wrap;fontSize=12;fontStyle=0;container=1;pointerEvents=0;collapsible=0;recursiveResize=0;shape=mxgraph.aws4.group;grIcon=mxgraph.aws4.group_aws_cloud;strokeColor=#232F3E;fillColor=none;verticalAlign=top;align=left;spacingLeft=30;fontColor=#232F3E;dashed=0;&quot; value=&quot;AWS Cloud&quot; vertex=&quot;1&quot;&gt;&#10;          &lt;mxGeometry height=&quot;1720&quot; width=&quot;2690&quot; x=&quot;-690&quot; y=&quot;40&quot; as=&quot;geometry&quot; /&gt;&#10;        &lt;/mxCell&gt;&#10;        &lt;mxCell id=&quot;t1XGjNwIdXhra_N-eCPQ-34&quot; parent=&quot;1&quot; style=&quot;points=[[0,0],[0.25,0],[0.5,0],[0.75,0],[1,0],[1,0.25],[1,0.5],[1,0.75],[1,1],[0.75,1],[0.5,1],[0.25,1],[0,1],[0,0.75],[0,0.5],[0,0.25]];outlineConnect=0;gradientColor=none;html=1;whiteSpace=wrap;fontSize=12;fontStyle=0;container=1;pointerEvents=0;collapsible=0;recursiveResize=0;shape=mxgraph.aws4.group;grIcon=mxgraph.aws4.group_region;strokeColor=#00A4A6;fillColor=none;verticalAlign=top;align=left;spacingLeft=30;fontColor=#147EBA;dashed=1;&quot; value=&quot;Region&quot; vertex=&quot;1&quot;&gt;&#10;          &lt;mxGeometry height=&quot;1520&quot; width=&quot;2520&quot; x=&quot;-590&quot; y=&quot;100&quot; as=&quot;geometry&quot; /&gt;&#10;        &lt;/mxCell&gt;&#10;        &lt;mxCell id=&quot;t1XGjNwIdXhra_N-eCPQ-45&quot; parent=&quot;t1XGjNwIdXhra_N-eCPQ-34&quot; style=&quot;fillColor=none;strokeColor=#DD3522;verticalAlign=top;fontStyle=0;fontColor=#DD3522;whiteSpace=wrap;html=1;&quot; value=&quot;&amp;lt;font style=&amp;quot;font-size: 18px;&amp;quot;&amp;gt;APPLICATION LAYER BOX&amp;lt;/font&amp;gt;&amp;lt;div&amp;gt;&amp;lt;br&amp;gt;&amp;lt;/div&amp;gt;&quot; vertex=&quot;1&quot;&gt;&#10;          &lt;mxGeometry height=&quot;1360&quot; width=&quot;760&quot; x=&quot;850&quot; y=&quot;60&quot; as=&quot;geometry&quot; /&gt;&#10;        &lt;/mxCell&gt;&#10;        &lt;mxCell id=&quot;c7YxpHnhUU9EnWdd8g77-1&quot; parent=&quot;t1XGjNwIdXhra_N-eCPQ-34&quot; style=&quot;outlineConnect=0;dashed=0;verticalLabelPosition=bottom;verticalAlign=top;align=center;html=1;shape=mxgraph.aws3.lambda_function;fillColor=#F58534;gradientColor=none;&quot; value=&quot;&quot; vertex=&quot;1&quot;&gt;&#10;          &lt;mxGeometry height=&quot;170&quot; width=&quot;160&quot; x=&quot;1030&quot; y=&quot;170&quot; as=&quot;geometry&quot; /&gt;&#10;        &lt;/mxCell&gt;&#10;        &lt;mxCell id=&quot;c7YxpHnhUU9EnWdd8g77-2&quot; parent=&quot;t1XGjNwIdXhra_N-eCPQ-34&quot; style=&quot;outlineConnect=0;dashed=0;verticalLabelPosition=bottom;verticalAlign=top;align=center;html=1;shape=mxgraph.aws3.lambda_function;fillColor=#F58534;gradientColor=none;&quot; value=&quot;&quot; vertex=&quot;1&quot;&gt;&#10;          &lt;mxGeometry height=&quot;170&quot; width=&quot;160&quot; x=&quot;1030&quot; y=&quot;500&quot; as=&quot;geometry&quot; /&gt;&#10;        &lt;/mxCell&gt;&#10;        &lt;mxCell id=&quot;c7YxpHnhUU9EnWdd8g77-3&quot; parent=&quot;t1XGjNwIdXhra_N-eCPQ-34&quot; style=&quot;outlineConnect=0;dashed=0;verticalLabelPosition=bottom;verticalAlign=top;align=center;html=1;shape=mxgraph.aws3.lambda_function;fillColor=#F58534;gradientColor=none;&quot; value=&quot;&quot; vertex=&quot;1&quot;&gt;&#10;          &lt;mxGeometry height=&quot;170&quot; width=&quot;160&quot; x=&quot;1030&quot; y=&quot;830&quot; as=&quot;geometry&quot; /&gt;&#10;        &lt;/mxCell&gt;&#10;        &lt;mxCell id=&quot;c7YxpHnhUU9EnWdd8g77-4&quot; parent=&quot;t1XGjNwIdXhra_N-eCPQ-34&quot; style=&quot;outlineConnect=0;dashed=0;verticalLabelPosition=bottom;verticalAlign=top;align=center;html=1;shape=mxgraph.aws3.lambda_function;fillColor=#F58534;gradientColor=none;&quot; value=&quot;&quot; vertex=&quot;1&quot;&gt;&#10;          &lt;mxGeometry height=&quot;170&quot; width=&quot;160&quot; x=&quot;1030&quot; y=&quot;1190&quot; as=&quot;geometry&quot; /&gt;&#10;        &lt;/mxCell&gt;&#10;        &lt;mxCell id=&quot;c7YxpHnhUU9EnWdd8g77-5&quot; parent=&quot;t1XGjNwIdXhra_N-eCPQ-34&quot; style=&quot;text;html=1;whiteSpace=wrap;strokeColor=none;fillColor=none;align=center;verticalAlign=middle;rounded=0;&quot; value=&quot;&amp;lt;font style=&amp;quot;font-size: 24px;&amp;quot;&amp;gt;Lambda 1: &amp;lt;code class=&amp;quot;bg-text-200/5 border border-0.5 border-border-300 text-danger-000 whitespace-pre-wrap rounded-[0.4rem] px-1 py-px text-[0.9rem]&amp;quot;&amp;gt;GET /users&amp;lt;/code&amp;gt;&amp;lt;/font&amp;gt;&quot; vertex=&quot;1&quot;&gt;&#10;          &lt;mxGeometry height=&quot;30&quot; width=&quot;350&quot; x=&quot;1220&quot; y=&quot;230&quot; as=&quot;geometry&quot; /&gt;&#10;        &lt;/mxCell&gt;&#10;        &lt;mxCell id=&quot;c7YxpHnhUU9EnWdd8g77-6&quot; parent=&quot;t1XGjNwIdXhra_N-eCPQ-34&quot; style=&quot;text;html=1;whiteSpace=wrap;strokeColor=none;fillColor=none;align=center;verticalAlign=middle;rounded=0;&quot; value=&quot;&amp;lt;font style=&amp;quot;font-size: 24px;&amp;quot;&amp;gt;Lambda 2: &amp;lt;code class=&amp;quot;bg-text-200/5 border border-0.5 border-border-300 text-danger-000 whitespace-pre-wrap rounded-[0.4rem] px-1 py-px text-[0.9rem]&amp;quot;&amp;gt;POST /item&amp;lt;/code&amp;gt;&amp;lt;/font&amp;gt;&quot; vertex=&quot;1&quot;&gt;&#10;          &lt;mxGeometry height=&quot;30&quot; width=&quot;350&quot; x=&quot;1210&quot; y=&quot;570&quot; as=&quot;geometry&quot; /&gt;&#10;        &lt;/mxCell&gt;&#10;        &lt;mxCell id=&quot;c7YxpHnhUU9EnWdd8g77-7&quot; parent=&quot;t1XGjNwIdXhra_N-eCPQ-34&quot; style=&quot;text;html=1;whiteSpace=wrap;strokeColor=none;fillColor=none;align=center;verticalAlign=middle;rounded=0;&quot; value=&quot;&amp;lt;font style=&amp;quot;font-size: 24px;&amp;quot;&amp;gt;Lambda 3: &amp;lt;code class=&amp;quot;bg-text-200/5 border border-0.5 border-border-300 text-danger-000 whitespace-pre-wrap rounded-[0.4rem] px-1 py-px text-[0.9rem]&amp;quot;&amp;gt;DELETE /item&amp;lt;/code&amp;gt;&amp;lt;/font&amp;gt;&quot; vertex=&quot;1&quot;&gt;&#10;          &lt;mxGeometry height=&quot;30&quot; width=&quot;350&quot; x=&quot;1220&quot; y=&quot;900&quot; as=&quot;geometry&quot; /&gt;&#10;        &lt;/mxCell&gt;&#10;        &lt;mxCell id=&quot;c7YxpHnhUU9EnWdd8g77-8&quot; parent=&quot;t1XGjNwIdXhra_N-eCPQ-34&quot; style=&quot;text;html=1;whiteSpace=wrap;strokeColor=none;fillColor=none;align=center;verticalAlign=middle;rounded=0;&quot; value=&quot;&amp;lt;font style=&amp;quot;font-size: 24px;&amp;quot;&amp;gt;Lambda 4: &amp;lt;code class=&amp;quot;bg-text-200/5 border border-0.5 border-border-300 text-danger-000 whitespace-pre-wrap rounded-[0.4rem] px-1 py-px text-[0.9rem]&amp;quot;&amp;gt;GET /orders&amp;lt;/code&amp;gt;&amp;lt;/font&amp;gt;&quot; vertex=&quot;1&quot;&gt;&#10;          &lt;mxGeometry height=&quot;30&quot; width=&quot;350&quot; x=&quot;1210&quot; y=&quot;1280&quot; as=&quot;geometry&quot; /&gt;&#10;        &lt;/mxCell&gt;&#10;        &lt;mxCell id=&quot;c7YxpHnhUU9EnWdd8g77-9&quot; parent=&quot;t1XGjNwIdXhra_N-eCPQ-34&quot; style=&quot;fillColor=none;strokeColor=#DD3522;verticalAlign=top;fontStyle=0;fontColor=#DD3522;whiteSpace=wrap;html=1;&quot; value=&quot;&amp;lt;font style=&amp;quot;font-size: 18px;&amp;quot;&amp;gt;APPLICATION LAYER BOX&amp;lt;/font&amp;gt;&amp;lt;div&amp;gt;&amp;lt;br&amp;gt;&amp;lt;/div&amp;gt;&quot; vertex=&quot;1&quot;&gt;&#10;          &lt;mxGeometry height=&quot;1360&quot; width=&quot;760&quot; x=&quot;1680&quot; y=&quot;70&quot; as=&quot;geometry&quot; /&gt;&#10;        &lt;/mxCell&gt;&#10;        &lt;mxCell id=&quot;t1XGjNwIdXhra_N-eCPQ-35&quot; parent=&quot;1&quot; style=&quot;fillColor=none;strokeColor=#DD3522;verticalAlign=top;fontStyle=0;fontColor=#DD3522;whiteSpace=wrap;html=1;&quot; value=&quot;AUTH LAYER BOX&quot; vertex=&quot;1&quot;&gt;&#10;          &lt;mxGeometry height=&quot;1360&quot; width=&quot;740&quot; x=&quot;-530&quot; y=&quot;160&quot; as=&quot;geometry&quot; /&gt;&#10;        &lt;/mxCell&gt;&#10;        &lt;mxCell id=&quot;t1XGjNwIdXhra_N-eCPQ-36&quot; parent=&quot;1&quot; style=&quot;sketch=0;points=[[0,0,0],[0.25,0,0],[0.5,0,0],[0.75,0,0],[1,0,0],[0,1,0],[0.25,1,0],[0.5,1,0],[0.75,1,0],[1,1,0],[0,0.25,0],[0,0.5,0],[0,0.75,0],[1,0.25,0],[1,0.5,0],[1,0.75,0]];outlineConnect=0;fontColor=#232F3E;fillColor=#DD344C;strokeColor=#ffffff;dashed=0;verticalLabelPosition=bottom;verticalAlign=top;align=center;html=1;fontSize=12;fontStyle=0;aspect=fixed;shape=mxgraph.aws4.resourceIcon;resIcon=mxgraph.aws4.cognito;&quot; value=&quot;&quot; vertex=&quot;1&quot;&gt;&#10;          &lt;mxGeometry height=&quot;198&quot; width=&quot;198&quot; x=&quot;-280&quot; y=&quot;270&quot; as=&quot;geometry&quot; /&gt;&#10;        &lt;/mxCell&gt;&#10;        &lt;mxCell id=&quot;t1XGjNwIdXhra_N-eCPQ-37&quot; parent=&quot;1&quot; style=&quot;sketch=0;points=[[0,0,0],[0.25,0,0],[0.5,0,0],[0.75,0,0],[1,0,0],[0,1,0],[0.25,1,0],[0.5,1,0],[0.75,1,0],[1,1,0],[0,0.25,0],[0,0.5,0],[0,0.75,0],[1,0.25,0],[1,0.5,0],[1,0.75,0]];outlineConnect=0;fontColor=#232F3E;fillColor=#DD344C;strokeColor=#ffffff;dashed=0;verticalLabelPosition=bottom;verticalAlign=top;align=center;html=1;fontSize=12;fontStyle=0;aspect=fixed;shape=mxgraph.aws4.resourceIcon;resIcon=mxgraph.aws4.waf;&quot; value=&quot;&quot; vertex=&quot;1&quot;&gt;&#10;          &lt;mxGeometry height=&quot;210&quot; width=&quot;210&quot; x=&quot;-280&quot; y=&quot;650&quot; as=&quot;geometry&quot; /&gt;&#10;        &lt;/mxCell&gt;&#10;        &lt;mxCell id=&quot;t1XGjNwIdXhra_N-eCPQ-38&quot; parent=&quot;1&quot; style=&quot;sketch=0;points=[[0,0,0],[0.25,0,0],[0.5,0,0],[0.75,0,0],[1,0,0],[0,1,0],[0.25,1,0],[0.5,1,0],[0.75,1,0],[1,1,0],[0,0.25,0],[0,0.5,0],[0,0.75,0],[1,0.25,0],[1,0.5,0],[1,0.75,0]];outlineConnect=0;fontColor=#232F3E;fillColor=#E7157B;strokeColor=#ffffff;dashed=0;verticalLabelPosition=bottom;verticalAlign=top;align=center;html=1;fontSize=12;fontStyle=0;aspect=fixed;shape=mxgraph.aws4.resourceIcon;resIcon=mxgraph.aws4.api_gateway;&quot; value=&quot;&quot; vertex=&quot;1&quot;&gt;&#10;          &lt;mxGeometry height=&quot;200&quot; width=&quot;200&quot; x=&quot;-270&quot; y=&quot;1130&quot; as=&quot;geometry&quot; /&gt;&#10;        &lt;/mxCell&gt;&#10;        &lt;mxCell id=&quot;t1XGjNwIdXhra_N-eCPQ-39&quot; parent=&quot;1&quot; style=&quot;text;html=1;whiteSpace=wrap;strokeColor=none;fillColor=none;align=center;verticalAlign=middle;rounded=0;&quot; value=&quot;&amp;lt;font style=&amp;quot;font-size: 18px;&amp;quot;&amp;gt;amazon cognito&amp;lt;/font&amp;gt;&quot; vertex=&quot;1&quot;&gt;&#10;          &lt;mxGeometry height=&quot;30&quot; width=&quot;290&quot; x=&quot;-320&quot; y=&quot;480&quot; as=&quot;geometry&quot; /&gt;&#10;        &lt;/mxCell&gt;&#10;        &lt;mxCell id=&quot;t1XGjNwIdXhra_N-eCPQ-40&quot; parent=&quot;1&quot; style=&quot;text;html=1;whiteSpace=wrap;strokeColor=none;fillColor=none;align=center;verticalAlign=middle;rounded=0;&quot; value=&quot;&amp;lt;font style=&amp;quot;font-size: 18px;&amp;quot;&amp;gt;WAF&amp;lt;/font&amp;gt;&quot; vertex=&quot;1&quot;&gt;&#10;          &lt;mxGeometry height=&quot;30&quot; width=&quot;60&quot; x=&quot;-205&quot; y=&quot;870&quot; as=&quot;geometry&quot; /&gt;&#10;        &lt;/mxCell&gt;&#10;        &lt;mxCell id=&quot;t1XGjNwIdXhra_N-eCPQ-41&quot; parent=&quot;1&quot; style=&quot;text;html=1;whiteSpace=wrap;strokeColor=none;fillColor=none;align=center;verticalAlign=middle;rounded=0;&quot; value=&quot;&amp;lt;font style=&amp;quot;font-size: 18px;&amp;quot;&amp;gt;AMAZON API GATEWAY&amp;lt;/font&amp;gt;&quot; vertex=&quot;1&quot;&gt;&#10;          &lt;mxGeometry height=&quot;30&quot; width=&quot;350&quot; x=&quot;-356&quot; y=&quot;1350&quot; as=&quot;geometry&quot; /&gt;&#10;        &lt;/mxCell&gt;&#10;        &lt;mxCell id=&quot;t1XGjNwIdXhra_N-eCPQ-43&quot; edge=&quot;1&quot; parent=&quot;1&quot; source=&quot;t1XGjNwIdXhra_N-eCPQ-39&quot; style=&quot;edgeStyle=elbowEdgeStyle;rounded=0;orthogonalLoop=1;jettySize=auto;html=1;exitX=0.5;exitY=0;exitDx=0;exitDy=0;entryX=0.5;entryY=0;entryDx=0;entryDy=0;entryPerimeter=0;shape=flexArrow;&quot; target=&quot;t1XGjNwIdXhra_N-eCPQ-37&quot;&gt;&#10;          &lt;mxGeometry relative=&quot;1&quot; as=&quot;geometry&quot; /&gt;&#10;        &lt;/mxCell&gt;&#10;        &lt;mxCell id=&quot;t1XGjNwIdXhra_N-eCPQ-44&quot; edge=&quot;1&quot; parent=&quot;1&quot; source=&quot;t1XGjNwIdXhra_N-eCPQ-37&quot; style=&quot;edgeStyle=elbowEdgeStyle;rounded=0;orthogonalLoop=1;jettySize=auto;html=1;entryX=0.5;entryY=0;entryDx=0;entryDy=0;entryPerimeter=0;shape=flexArrow;&quot; target=&quot;t1XGjNwIdXhra_N-eCPQ-38&quot;&gt;&#10;          &lt;mxGeometry relative=&quot;1&quot; as=&quot;geometry&quot; /&gt;&#10;        &lt;/mxCell&gt;&#10;      &lt;/root&gt;&#10;    &lt;/mxGraphModel&gt;&#10;  &lt;/diagram&gt;&#10;&lt;/mxfile&gt;&#10;" resource="https://app.diagrams.net/?src=about#HZaamaar%2FServerless-API-Lambda-API-Gateway-DynamoDB-Cognito%2Fmain%2FServerless%20API%20%E2%80%94%20Lambda%20%2B%20API%20Gateway%20%2B%20DynamoDB%20%2B%20Cognito.drawio.svg#%7B%22pageId%22%3A%22dQz-Ghh5sEeEeMp5tp8N%22%7D"><defs/><rect fill="#FFFFFF" width="100%" height="100%" x="0" y="0" style="fill: light-dark(rgb(255, 255, 255), rgb(0, 0, 0));"/><g><g data-cell-id="0"><g data-cell-id="1"><g data-cell-id="t1XGjNwIdXhra_N-eCPQ-32"><g transform="translate(0.5,0.5)"><path d="M 0 0 L 2690 0 L 2690 1720 L 0 1720 Z" fill="none" stroke="#232f3e" stroke-miterlimit="10" pointer-events="none" style="stroke: light-dark(rgb(35, 47, 62), rgb(189, 199, 212));"/><path d="M 10.73 6.89 C 8.19 6.86 6.05 9.34 6.28 11.84 C 4.63 12.3 3.58 14.09 3.93 15.76 C 4.17 17.45 5.84 18.8 7.55 18.58 C 11.3 18.56 15.04 18.61 18.79 18.55 C 20.71 18.38 22.05 16.29 21.58 14.45 C 21.34 13.13 20.21 11.98 18.87 11.81 C 18.86 10.3 17.26 8.82 15.79 9.6 C 14.97 10.39 14.82 8.44 14.02 8.13 C 13.14 7.28 11.95 6.82 10.73 6.89 Z M 10.75 7.63 C 12.68 7.51 14.32 9.05 14.91 10.79 C 15.31 11.19 15.67 10.52 15.97 10.34 C 17.25 9.57 18.21 11.17 18.23 12.29 C 18.58 12.77 19.39 12.38 19.77 12.91 C 21.21 13.93 21.3 16.3 19.88 17.37 C 18.9 18.09 17.63 17.75 16.5 17.83 C 13.28 17.82 10.06 17.84 6.84 17.82 C 5.2 17.58 4.19 15.69 4.79 14.17 C 5.07 13.16 6.05 12.67 6.94 12.36 C 7.19 11.62 6.85 10.71 7.33 9.99 C 7.92 8.65 9.25 7.61 10.75 7.63 Z M 0 25 C 0 16.67 0 8.33 0 0 C 8.33 0 16.67 0 25 0 C 25 8.33 25 16.67 25 25 C 16.67 25 8.33 25 0 25 Z" fill="#232f3e" stroke="none" pointer-events="all" style="fill: light-dark(rgb(35, 47, 62), rgb(189, 199, 212));"/></g><g><g><switch><foreignObject style="overflow: visible; text-align: left;" pointer-events="none" width="100%" height="100%" requiredFeatures="http://www.w3.org/TR/SVG11/feature#Extensibility"><div xmlns="http://www.w3.org/1999/xhtml" style="display: flex; align-items: unsafe flex-start; justify-content: unsafe flex-start; width: 2658px; height: 1px; padding-top: 7px; margin-left: 32px;"><div style="box-sizing: border-box; font-size: 0; text-align: left; color: #232F3E; "><div style="display: inline-block; font-size: 12px; font-family: Helvetica; color: light-dark(#232F3E, #bdc7d4); line-height: 1.2; pointer-events: all; white-space: normal; word-wrap: normal; ">AWS Cloud</div></div></div></foreignObject><text x="32" y="19" fill="#232F3E" font-family="Helvetica" font-size="12px">AWS Cloud</text></switch></g></g></g><g data-cell-id="t1XGjNwIdXhra_N-eCPQ-34"><g transform="translate(0.5,0.5)"><path d="M 100 60 L 2620 60 L 2620 1580 L 100 1580 Z" fill="none" stroke="#00a4a6" stroke-miterlimit="10" stroke-dasharray="3 3" pointer-events="none" style="stroke: light-dark(rgb(0, 164, 166), rgb(15, 156, 158));"/><path d="M 108.06 63.47 C 107.47 63.47 107 63.95 107 64.53 C 107 64.99 107.3 65.39 107.71 65.53 L 107.71 80.82 L 105.95 80.82 L 105.95 81.57 L 110.16 81.57 L 110.16 80.82 L 108.46 80.82 L 108.46 72.75 L 119.84 72.75 L 117.19 69.59 L 119.83 66.36 L 108.46 66.36 L 108.46 65.51 C 108.85 65.35 109.12 64.97 109.12 64.53 C 109.12 63.95 108.64 63.47 108.06 63.47 Z M 108.06 64.22 C 108.23 64.22 108.37 64.35 108.37 64.53 C 108.37 64.71 108.23 64.84 108.06 64.84 C 107.88 64.84 107.75 64.71 107.75 64.53 C 107.75 64.35 107.88 64.22 108.06 64.22 Z M 108.46 67.11 L 118.25 67.11 L 116.22 69.6 L 118.23 72 L 108.46 72 Z M 100 85 L 100 60 L 125 60 L 125 85 Z" fill="#00a4a6" stroke="none" pointer-events="all" style="fill: light-dark(rgb(0, 164, 166), rgb(15, 156, 158));"/></g><g><g><switch><foreignObject style="overflow: visible; text-align: left;" pointer-events="none" width="100%" height="100%" requiredFeatures="http://www.w3.org/TR/SVG11/feature#Extensibility"><div xmlns="http://www.w3.org/1999/xhtml" style="display: flex; align-items: unsafe flex-start; justify-content: unsafe flex-start; width: 2488px; height: 1px; padding-top: 67px; margin-left: 132px;"><div style="box-sizing: border-box; font-size: 0; text-align: left; color: #147EBA; "><div style="display: inline-block; font-size: 12px; font-family: Helvetica; color: light-dark(#147EBA, #45a0d4); line-height: 1.2; pointer-events: all; white-space: normal; word-wrap: normal; ">Region</div></div></div></foreignObject><text x="132" y="79" fill="#147EBA" font-family="Helvetica" font-size="12px">Region</text></switch></g></g><g data-cell-id="t1XGjNwIdXhra_N-eCPQ-45"><g transform="translate(0.5,0.5)"><rect x="950" y="120" width="760" height="1360" fill="none" stroke="#dd3522" pointer-events="all" style="stroke: light-dark(rgb(221, 53, 34), rgb(255, 133, 117));"/></g><g><g><switch><foreignObject style="overflow: visible; text-align: left;" pointer-events="none" width="100%" height="100%" requiredFeatures="http://www.w3.org/TR/SVG11/feature#Extensibility"><div xmlns="http://www.w3.org/1999/xhtml" style="display: flex; align-items: unsafe flex-start; justify-content: unsafe center; width: 758px; height: 1px; padding-top: 127px; margin-left: 951px;"><div style="box-sizing: border-box; font-size: 0; text-align: center; color: #DD3522; "><div style="display: inline-block; font-size: 12px; font-family: Helvetica; color: light-dark(#DD3522, #ff8575); line-height: 1.2; pointer-events: all; white-space: normal; word-wrap: normal; "><font style="font-size: 18px;">APPLICATION LAYER BOX</font><div><br /></div></div></div></div></foreignObject><text x="1330" y="139" fill="#DD3522" font-family="Helvetica" font-size="12px" text-anchor="middle">APPLICATION LAYER BOX&#xa;</text></switch></g></g></g><g data-cell-id="c7YxpHnhUU9EnWdd8g77-1"><g transform="translate(0.5,0.5)"><path d="M 1209.91 400 C 1164.21 400 1130 361.59 1130 319.67 L 1130 310.15 C 1130 269.34 1162.7 230 1210.51 230 C 1253.93 230 1290 266.63 1290 310.65 L 1289.96 318.99 C 1289.96 360.51 1256.67 400 1209.91 400 Z" fill="#f58534" stroke="none" pointer-events="all" style="fill: light-dark(rgb(245, 133, 52), rgb(189, 92, 23));"/><path d="M 1130 310.15 C 1130 357.54 1166.14 393.24 1209.49 393.24 C 1253.27 393.24 1290 357.94 1290 310.65 L 1289.96 318.99 C 1289.96 360.55 1256.67 400 1209.91 400 C 1164 400 1130 361.44 1130 319.67 Z" fill-opacity="0.3" fill="#000000" stroke="none" pointer-events="all" style="fill: light-dark(rgb(0, 0, 0), rgb(237, 237, 237));"/><rect x="1130" y="230" width="0" height="0" fill="none" stroke="#000000" pointer-events="all" style="stroke: light-dark(rgb(0, 0, 0), rgb(255, 255, 255));"/><path d="M 1161.51 361.26 L 1202.9 286.08 L 1197.96 272.85 L 1183.66 272.85 L 1183.66 255.07 L 1209.95 255.07 L 1241.95 340.56 L 1255.83 335.12 L 1262.03 351.75 L 1231.89 363.48 L 1211 307.65 L 1181.52 361.26 Z" fill="#ffffff" stroke="none" pointer-events="all" style="fill: light-dark(rgb(255, 255, 255), rgb(18, 18, 18));"/></g></g><g data-cell-id="c7YxpHnhUU9EnWdd8g77-2"><g transform="translate(0.5,0.5)"><path d="M 1209.91 730 C 1164.21 730 1130 691.59 1130 649.67 L 1130 640.15 C 1130 599.34 1162.7 560 1210.51 560 C 1253.93 560 1290 596.63 1290 640.65 L 1289.96 648.99 C 1289.96 690.51 1256.67 730 1209.91 730 Z" fill="#f58534" stroke="none" pointer-events="all" style="fill: light-dark(rgb(245, 133, 52), rgb(189, 92, 23));"/><path d="M 1130 640.15 C 1130 687.54 1166.14 723.24 1209.49 723.24 C 1253.27 723.24 1290 687.94 1290 640.65 L 1289.96 648.99 C 1289.96 690.55 1256.67 730 1209.91 730 C 1164 730 1130 691.44 1130 649.67 Z" fill-opacity="0.3" fill="#000000" stroke="none" pointer-events="all" style="fill: light-dark(rgb(0, 0, 0), rgb(237, 237, 237));"/><rect x="1130" y="560" width="0" height="0" fill="none" stroke="#000000" pointer-events="all" style="stroke: light-dark(rgb(0, 0, 0), rgb(255, 255, 255));"/><path d="M 1161.51 691.26 L 1202.9 616.08 L 1197.96 602.85 L 1183.66 602.85 L 1183.66 585.07 L 1209.95 585.07 L 1241.95 670.56 L 1255.83 665.12 L 1262.03 681.75 L 1231.89 693.48 L 1211 637.65 L 1181.52 691.26 Z" fill="#ffffff" stroke="none" pointer-events="all" style="fill: light-dark(rgb(255, 255, 255), rgb(18, 18, 18));"/></g></g><g data-cell-id="c7YxpHnhUU9EnWdd8g77-3"><g transform="translate(0.5,0.5)"><path d="M 1209.91 1060 C 1164.21 1060 1130 1021.59 1130 979.67 L 1130 970.15 C 1130 929.34 1162.7 890 1210.51 890 C 1253.93 890 1290 926.63 1290 970.65 L 1289.96 978.99 C 1289.96 1020.51 1256.67 1060 1209.91 1060 Z" fill="#f58534" stroke="none" pointer-events="all" style="fill: light-dark(rgb(245, 133, 52), rgb(189, 92, 23));"/><path d="M 1130 970.15 C 1130 1017.54 1166.14 1053.24 1209.49 1053.24 C 1253.27 1053.24 1290 1017.94 1290 970.65 L 1289.96 978.99 C 1289.96 1020.55 1256.67 1060 1209.91 1060 C 1164 1060 1130 1021.44 1130 979.67 Z" fill-opacity="0.3" fill="#000000" stroke="none" pointer-events="all" style="fill: light-dark(rgb(0, 0, 0), rgb(237, 237, 237));"/><rect x="1130" y="890" width="0" height="0" fill="none" stroke="#000000" pointer-events="all" style="stroke: light-dark(rgb(0, 0, 0), rgb(255, 255, 255));"/><path d="M 1161.51 1021.26 L 1202.9 946.08 L 1197.96 932.85 L 1183.66 932.85 L 1183.66 915.07 L 1209.95 915.07 L 1241.95 1000.56 L 1255.83 995.12 L 1262.03 1011.75 L 1231.89 1023.48 L 1211 967.65 L 1181.52 1021.26 Z" fill="#ffffff" stroke="none" pointer-events="all" style="fill: light-dark(rgb(255, 255, 255), rgb(18, 18, 18));"/></g></g><g data-cell-id="c7YxpHnhUU9EnWdd8g77-4"><g transform="translate(0.5,0.5)"><path d="M 1209.91 1420 C 1164.21 1420 1130 1381.59 1130 1339.67 L 1130 1330.15 C 1130 1289.34 1162.7 1250 1210.51 1250 C 1253.93 1250 1290 1286.63 1290 1330.65 L 1289.96 1338.99 C 1289.96 1380.51 1256.67 1420 1209.91 1420 Z" fill="#f58534" stroke="none" pointer-events="all" style="fill: light-dark(rgb(245, 133, 52), rgb(189, 92, 23));"/><path d="M 1130 1330.15 C 1130 1377.54 1166.14 1413.24 1209.49 1413.24 C 1253.27 1413.24 1290 1377.94 1290 1330.65 L 1289.96 1338.99 C 1289.96 1380.55 1256.67 1420 1209.91 1420 C 1164 1420 1130 1381.44 1130 1339.67 Z" fill-opacity="0.3" fill="#000000" stroke="none" pointer-events="all" style="fill: light-dark(rgb(0, 0, 0), rgb(237, 237, 237));"/><rect x="1130" y="1250" width="0" height="0" fill="none" stroke="#000000" pointer-events="all" style="stroke: light-dark(rgb(0, 0, 0), rgb(255, 255, 255));"/><path d="M 1161.51 1381.26 L 1202.9 1306.08 L 1197.96 1292.85 L 1183.66 1292.85 L 1183.66 1275.07 L 1209.95 1275.07 L 1241.95 1360.56 L 1255.83 1355.12 L 1262.03 1371.75 L 1231.89 1383.48 L 1211 1327.65 L 1181.52 1381.26 Z" fill="#ffffff" stroke="none" pointer-events="all" style="fill: light-dark(rgb(255, 255, 255), rgb(18, 18, 18));"/></g></g><g data-cell-id="c7YxpHnhUU9EnWdd8g77-5"><g transform="translate(0.5,0.5)"><rect x="1320" y="290" width="350" height="30" fill="none" stroke="none" pointer-events="all"/></g><g><g><switch><foreignObject style="overflow: visible; text-align: left;" pointer-events="none" width="100%" height="100%" requiredFeatures="http://www.w3.org/TR/SVG11/feature#Extensibility"><div xmlns="http://www.w3.org/1999/xhtml" style="display: flex; align-items: unsafe center; justify-content: unsafe center; width: 348px; height: 1px; padding-top: 305px; margin-left: 1321px;"><div style="box-sizing: border-box; font-size: 0; text-align: center; color: #000000; "><div style="display: inline-block; font-size: 12px; font-family: Helvetica; color: light-dark(#000000, #ffffff); line-height: 1.2; pointer-events: all; white-space: normal; word-wrap: normal; "><font style="font-size: 24px;">Lambda 1: <code class="bg-text-200/5 border border-0.5 border-border-300 text-danger-000 whitespace-pre-wrap rounded-[0.4rem] px-1 py-px text-[0.9rem]">GET /users</code></font></div></div></div></foreignObject><text x="1495" y="309" fill="light-dark(#000000, #ffffff)" font-family="Helvetica" font-size="12px" text-anchor="middle">Lambda 1: GET /users</text></switch></g></g></g><g data-cell-id="c7YxpHnhUU9EnWdd8g77-6"><g transform="translate(0.5,0.5)"><rect x="1310" y="630" width="350" height="30" fill="none" stroke="none" pointer-events="all"/></g><g><g><switch><foreignObject style="overflow: visible; text-align: left;" pointer-events="none" width="100%" height="100%" requiredFeatures="http://www.w3.org/TR/SVG11/feature#Extensibility"><div xmlns="http://www.w3.org/1999/xhtml" style="display: flex; align-items: unsafe center; justify-content: unsafe center; width: 348px; height: 1px; padding-top: 645px; margin-left: 1311px;"><div style="box-sizing: border-box; font-size: 0; text-align: center; color: #000000; "><div style="display: inline-block; font-size: 12px; font-family: Helvetica; color: light-dark(#000000, #ffffff); line-height: 1.2; pointer-events: all; white-space: normal; word-wrap: normal; "><font style="font-size: 24px;">Lambda 2: <code class="bg-text-200/5 border border-0.5 border-border-300 text-danger-000 whitespace-pre-wrap rounded-[0.4rem] px-1 py-px text-[0.9rem]">POST /item</code></font></div></div></div></foreignObject><text x="1485" y="649" fill="light-dark(#000000, #ffffff)" font-family="Helvetica" font-size="12px" text-anchor="middle">Lambda 2: POST /item</text></switch></g></g></g><g data-cell-id="c7YxpHnhUU9EnWdd8g77-7"><g transform="translate(0.5,0.5)"><rect x="1320" y="960" width="350" height="30" fill="none" stroke="none" pointer-events="all"/></g><g><g><switch><foreignObject style="overflow: visible; text-align: left;" pointer-events="none" width="100%" height="100%" requiredFeatures="http://www.w3.org/TR/SVG11/feature#Extensibility"><div xmlns="http://www.w3.org/1999/xhtml" style="display: flex; align-items: unsafe center; justify-content: unsafe center; width: 348px; height: 1px; padding-top: 975px; margin-left: 1321px;"><div style="box-sizing: border-box; font-size: 0; text-align: center; color: #000000; "><div style="display: inline-block; font-size: 12px; font-family: Helvetica; color: light-dark(#000000, #ffffff); line-height: 1.2; pointer-events: all; white-space: normal; word-wrap: normal; "><font style="font-size: 24px;">Lambda 3: <code class="bg-text-200/5 border border-0.5 border-border-300 text-danger-000 whitespace-pre-wrap rounded-[0.4rem] px-1 py-px text-[0.9rem]">DELETE /item</code></font></div></div></div></foreignObject><text x="1495" y="979" fill="light-dark(#000000, #ffffff)" font-family="Helvetica" font-size="12px" text-anchor="middle">Lambda 3: DELETE /item</text></switch></g></g></g><g data-cell-id="c7YxpHnhUU9EnWdd8g77-8"><g transform="translate(0.5,0.5)"><rect x="1310" y="1340" width="350" height="30" fill="none" stroke="none" pointer-events="all"/></g><g><g><switch><foreignObject style="overflow: visible; text-align: left;" pointer-events="none" width="100%" height="100%" requiredFeatures="http://www.w3.org/TR/SVG11/feature#Extensibility"><div xmlns="http://www.w3.org/1999/xhtml" style="display: flex; align-items: unsafe center; justify-content: unsafe center; width: 348px; height: 1px; padding-top: 1355px; margin-left: 1311px;"><div style="box-sizing: border-box; font-size: 0; text-align: center; color: #000000; "><div style="display: inline-block; font-size: 12px; font-family: Helvetica; color: light-dark(#000000, #ffffff); line-height: 1.2; pointer-events: all; white-space: normal; word-wrap: normal; "><font style="font-size: 24px;">Lambda 4: <code class="bg-text-200/5 border border-0.5 border-border-300 text-danger-000 whitespace-pre-wrap rounded-[0.4rem] px-1 py-px text-[0.9rem]">GET /orders</code></font></div></div></div></foreignObject><text x="1485" y="1359" fill="light-dark(#000000, #ffffff)" font-family="Helvetica" font-size="12px" text-anchor="middle">Lambda 4: GET /orders</text></switch></g></g></g><g data-cell-id="c7YxpHnhUU9EnWdd8g77-9"><g transform="translate(0.5,0.5)"><rect x="1780" y="130" width="760" height="1360" fill="none" stroke="#dd3522" pointer-events="all" style="stroke: light-dark(rgb(221, 53, 34), rgb(255, 133, 117));"/></g><g><g><switch><foreignObject style="overflow: visible; text-align: left;" pointer-events="none" width="100%" height="100%" requiredFeatures="http://www.w3.org/TR/SVG11/feature#Extensibility"><div xmlns="http://www.w3.org/1999/xhtml" style="display: flex; align-items: unsafe flex-start; justify-content: unsafe center; width: 758px; height: 1px; padding-top: 137px; margin-left: 1781px;"><div style="box-sizing: border-box; font-size: 0; text-align: center; color: #DD3522; "><div style="display: inline-block; font-size: 12px; font-family: Helvetica; color: light-dark(#DD3522, #ff8575); line-height: 1.2; pointer-events: all; white-space: normal; word-wrap: normal; "><font style="font-size: 18px;">APPLICATION LAYER BOX</font><div><br /></div></div></div></div></foreignObject><text x="2160" y="149" fill="#DD3522" font-family="Helvetica" font-size="12px" text-anchor="middle">APPLICATION LAYER BOX&#xa;</text></switch></g></g></g></g><g data-cell-id="t1XGjNwIdXhra_N-eCPQ-35"><g transform="translate(0.5,0.5)"><rect x="160" y="120" width="740" height="1360" fill="none" stroke="#dd3522" pointer-events="all" style="stroke: light-dark(rgb(221, 53, 34), rgb(255, 133, 117));"/></g><g><g><switch><foreignObject style="overflow: visible; text-align: left;" pointer-events="none" width="100%" height="100%" requiredFeatures="http://www.w3.org/TR/SVG11/feature#Extensibility"><div xmlns="http://www.w3.org/1999/xhtml" style="display: flex; align-items: unsafe flex-start; justify-content: unsafe center; width: 738px; height: 1px; padding-top: 127px; margin-left: 161px;"><div style="box-sizing: border-box; font-size: 0; text-align: center; color: #DD3522; "><div style="display: inline-block; font-size: 12px; font-family: Helvetica; color: light-dark(#DD3522, #ff8575); line-height: 1.2; pointer-events: all; white-space: normal; word-wrap: normal; ">AUTH LAYER BOX</div></div></div></foreignObject><text x="530" y="139" fill="#DD3522" font-family="Helvetica" font-size="12px" text-anchor="middle">AUTH LAYER BOX</text></switch></g></g></g><g data-cell-id="t1XGjNwIdXhra_N-eCPQ-36"><g transform="translate(0.5,0.5)"><path d="M 410 230 L 608 230 L 608 428 L 410 428 Z" fill="#dd344c" stroke="none" pointer-events="all" style="fill: light-dark(rgb(221, 52, 76), rgb(255, 127, 147));"/><path d="M 443.79 317.18 L 480.17 317.18 L 480.17 311.59 L 443.79 311.59 Z M 568.99 357.84 L 572.94 361.79 L 552.16 382.54 C 551.62 383.09 550.9 383.36 550.18 383.36 C 549.47 383.36 548.75 383.09 548.21 382.54 L 537.75 372.1 L 541.71 368.16 L 550.18 376.61 Z M 581.87 373.24 C 581.23 378.49 579.09 383.38 575.67 387.38 C 573.25 390.22 570.18 392.56 566.81 394.16 C 562.29 396.31 557.27 397.12 552.27 396.51 C 547.41 395.92 542.83 394 539.01 390.97 C 531.67 385.14 527.96 376.11 529.09 366.8 C 530.16 358 535.49 350.33 543.35 346.27 C 547.11 344.33 551.24 343.33 555.44 343.33 C 556.52 343.33 557.6 343.4 558.69 343.53 C 567.46 344.6 575.12 349.96 579.15 357.87 C 581.57 362.62 582.51 367.93 581.87 373.24 Z M 584.14 355.34 C 579.26 345.77 569.99 339.28 559.36 337.98 C 552.93 337.2 546.51 338.35 540.78 341.31 C 531.27 346.21 524.82 355.49 523.53 366.13 C 522.17 377.38 526.65 388.3 535.52 395.34 C 540.15 399.01 545.71 401.34 551.59 402.06 C 552.9 402.21 554.2 402.29 555.5 402.29 C 560.24 402.29 564.91 401.25 569.21 399.21 C 573.29 397.28 577 394.44 579.93 391 C 584.06 386.17 586.66 380.26 587.42 373.91 C 588.2 367.5 587.06 361.08 584.14 355.34 Z M 471.78 333.95 L 482.97 333.95 L 482.97 328.36 L 471.78 328.36 Z M 443.79 333.95 L 466.18 333.95 L 466.18 328.36 L 443.79 328.36 Z M 441.37 261.3 L 566.54 261.3 C 569.84 261.3 572.52 264.56 572.52 268.56 L 572.52 289.24 L 564.12 289.24 L 564.12 275.27 C 564.12 273.73 562.87 272.47 561.32 272.47 L 496.96 272.47 C 495.41 272.47 494.16 273.73 494.16 275.27 L 494.16 289.24 L 435.4 289.24 L 435.4 268.56 C 435.4 264.62 438.14 261.3 441.37 261.3 Z M 529.19 288.43 C 535.68 288.43 540.97 293.65 540.97 300.07 C 540.97 304.31 538.63 308.2 534.87 310.25 C 531.3 312.18 527 312.16 523.47 310.25 C 519.73 308.2 517.4 304.31 517.4 300.07 C 517.4 293.65 522.68 288.43 529.19 288.43 Z M 435.4 349.04 L 435.4 294.83 L 494.16 294.83 L 494.16 342.33 C 494.16 343.88 495.41 345.13 496.96 345.13 L 526.22 345.13 L 526.22 339.54 L 502.84 339.54 C 503.09 328.35 510.52 318.69 521.23 315.61 C 526.18 317.92 532.09 317.94 537.11 315.61 C 543.2 317.37 548.54 321.44 551.84 326.9 L 556.63 324 C 553.24 318.41 548.09 314.05 542.12 311.51 C 544.92 308.4 546.57 304.37 546.57 300.07 C 546.57 290.57 538.77 282.84 529.19 282.84 C 519.6 282.84 511.8 290.57 511.8 300.07 C 511.8 304.35 513.43 308.37 516.21 311.48 C 508.73 314.62 502.89 320.52 499.76 327.8 L 499.76 278.06 L 558.53 278.06 L 558.53 322.77 L 564.12 322.77 L 564.12 294.83 L 572.52 294.83 L 572.52 336.74 L 578.12 336.74 L 578.12 268.56 C 578.12 261.47 572.92 255.71 566.54 255.71 L 441.37 255.71 C 434.99 255.71 429.8 261.47 429.8 268.56 L 429.8 349.04 C 429.8 356.13 434.99 361.89 441.37 361.89 L 516.55 361.89 L 516.55 356.3 L 441.37 356.3 C 438.14 356.3 435.4 352.98 435.4 349.04 Z" fill="#ffffff" stroke="none" pointer-events="all" style="fill: light-dark(rgb(255, 255, 255), rgb(18, 18, 18));"/></g></g><g data-cell-id="t1XGjNwIdXhra_N-eCPQ-37"><g transform="translate(0.5,0.5)"><path d="M 410 610 L 620 610 L 620 820 L 410 820 Z" fill="#dd344c" stroke="none" pointer-events="all" style="fill: light-dark(rgb(221, 52, 76), rgb(255, 127, 147));"/><path d="M 438.19 718 L 431 718 L 431 712 L 438.2 712 C 438.8 696.82 443.72 682.38 452.62 670.08 L 457.49 673.59 C 449.32 684.87 444.79 698.1 444.2 712 L 452 712 L 452 718 L 444.19 718 C 444.75 731.99 449.28 745.29 457.49 756.63 L 452.62 760.15 C 443.67 747.78 438.75 733.25 438.19 718 Z M 560.03 777.48 C 547.69 786.41 533.22 791.34 518 791.92 L 518 799 L 512 799 L 512 791.92 C 496.78 791.34 482.3 786.41 469.96 777.48 L 473.48 772.62 C 484.79 780.81 498.06 785.34 512 785.92 L 512 778 L 518 778 L 518 785.92 C 531.94 785.34 545.21 780.81 556.51 772.62 Z M 469.96 652.74 C 482.3 643.81 496.78 638.89 512 638.31 L 512 631 L 518 631 L 518 638.31 C 533.22 638.89 547.69 643.81 560.03 652.74 L 556.51 657.6 C 545.21 649.41 531.94 644.88 518 644.31 L 518 652 L 512 652 L 512 644.31 C 498.06 644.88 484.79 649.41 473.48 657.6 Z M 599 712 L 599 718 L 591.81 718 C 591.25 733.25 586.32 747.78 577.37 760.15 L 572.51 756.63 C 580.72 745.29 585.25 731.99 585.81 718 L 578 718 L 578 712 L 585.8 712 C 585.2 698.1 580.67 684.87 572.51 673.59 L 577.37 670.08 C 586.28 682.38 591.2 696.82 591.8 712 Z M 559.92 665.95 L 583.44 642.43 L 587.68 646.67 L 564.16 670.19 Z M 470.08 764.27 L 446.56 787.79 L 442.32 783.55 L 465.84 760.03 Z M 476.76 681 L 432.24 636.48 L 436.48 632.24 L 481 676.76 Z M 553.12 748.88 L 597.76 793.52 L 593.52 797.76 L 548.88 753.12 Z M 489.99 717.21 C 490.22 716.81 490.46 716.4 490.72 716 C 495.76 708.08 494.31 697.27 492.71 690.74 C 497.03 693.58 500.93 699.45 502.26 701.91 C 502.83 702.96 503.93 703.59 505.14 703.48 C 506.32 703.39 507.34 702.61 507.73 701.49 C 512.2 688.8 509.93 679.26 506.78 673.08 C 510.6 675.3 513.56 678.5 515.52 682.58 C 519.76 691.4 518.82 703.48 513.04 714.1 C 505.16 728.61 506.74 743.82 508.53 752 C 504.03 750.06 500.02 747.87 496.56 745.46 C 487.48 739.13 484.59 726.72 489.99 717.21 Z M 530.28 716.19 C 530.09 717.42 530.66 718.64 531.74 719.27 C 532.81 719.89 534.16 719.79 535.13 719.01 C 535.37 718.81 540.29 714.75 542.67 704.93 C 545.54 709.1 548.55 717.53 544.55 733.01 C 540.6 748.32 521.84 752.63 515.15 753.69 C 513.53 747.89 510.25 731.8 518.32 716.97 C 524.04 706.43 525.56 694.53 522.69 684.7 C 528.12 691.08 532.7 701.12 530.28 716.19 Z M 484.77 714.25 C 477.86 726.43 481.53 742.3 493.13 750.38 C 498.38 754.04 504.74 757.22 512.03 759.82 C 512.36 759.94 512.7 760 513.04 760 C 513.1 760 513.16 759.97 513.22 759.96 L 513.22 759.99 C 514.5 759.89 544.48 757.29 550.36 734.51 C 557.92 705.21 542.77 696.52 542.12 696.16 C 541.24 695.68 540.18 695.67 539.29 696.14 C 538.4 696.6 537.8 697.49 537.7 698.49 C 537.49 700.51 537.15 702.31 536.75 703.91 C 534.67 680.9 516.44 671.54 512.75 669.88 C 508.97 666.98 504.37 664.99 499.05 664.05 C 497.71 663.8 496.38 664.5 495.81 665.73 C 495.24 666.96 495.56 668.43 496.6 669.3 C 497.05 669.68 506.4 677.79 503.73 693.22 C 500.25 688.65 494.7 683.14 488.18 683.14 C 487.19 683.14 486.27 683.63 485.71 684.45 C 485.15 685.26 485.03 686.3 485.38 687.22 C 485.45 687.38 491.56 703.5 485.65 712.78 C 485.34 713.27 485.04 713.77 484.77 714.25 Z" fill="#ffffff" stroke="none" pointer-events="all" style="fill: light-dark(rgb(255, 255, 255), rgb(18, 18, 18));"/></g></g><g data-cell-id="t1XGjNwIdXhra_N-eCPQ-38"><g transform="translate(0.5,0.5)"><path d="M 420 1090 L 620 1090 L 620 1290 L 420 1290 Z" fill="#e7157b" stroke="none" pointer-events="all" style="fill: light-dark(rgb(231, 21, 123), rgb(255, 129, 217));"/><path d="M 503.06 1234.7 L 511.44 1234.7 L 511.44 1228.94 L 503.06 1228.94 Z M 517.15 1234.7 L 525.71 1234.7 L 525.71 1228.94 L 517.15 1228.94 Z M 482.89 1117.65 L 445.78 1136.07 L 445.78 1250.57 L 482.89 1263.12 Z M 488.6 1154.09 L 488.6 1228.94 L 497.16 1228.94 L 497.16 1234.7 L 488.6 1234.7 L 488.6 1267.12 C 488.6 1268.05 488.16 1268.92 487.41 1269.46 C 486.92 1269.82 486.34 1270 485.74 1270 C 485.44 1270 485.13 1269.95 484.84 1269.85 L 442.02 1255.37 C 440.85 1254.98 440.07 1253.88 440.07 1252.64 L 440.07 1134.28 C 440.07 1133.18 440.69 1132.18 441.67 1131.69 L 484.49 1110.44 C 485.37 1110 486.42 1110.05 487.25 1110.58 C 488.09 1111.1 488.6 1112.03 488.6 1113.02 L 488.6 1148.33 L 497.16 1148.33 L 497.16 1154.09 Z M 531.42 1234.7 L 539.98 1234.7 L 539.98 1228.94 L 531.42 1228.94 Z M 531.6 1154.09 L 539.98 1154.09 L 539.98 1148.33 L 531.6 1148.33 Z M 517.33 1154.09 L 525.71 1154.09 L 525.71 1148.33 L 517.33 1148.33 Z M 503.06 1154.09 L 511.44 1154.09 L 511.44 1148.33 L 503.06 1148.33 Z M 594.22 1136.07 L 557.11 1117.65 L 557.11 1263.12 L 594.22 1250.57 Z M 599.93 1252.64 C 599.93 1253.88 599.15 1254.98 597.98 1255.37 L 555.16 1269.85 C 554.87 1269.95 554.56 1270 554.26 1270 C 553.66 1270 553.08 1269.82 552.59 1269.46 C 551.84 1268.92 551.4 1268.05 551.4 1267.12 L 551.4 1234.7 L 545.88 1234.7 L 545.88 1228.94 L 551.4 1228.94 L 551.4 1154.09 L 545.88 1154.09 L 545.88 1148.33 L 551.4 1148.33 L 551.4 1113.02 C 551.4 1112.03 551.91 1111.1 552.75 1110.58 C 553.58 1110.05 554.63 1110 555.51 1110.44 L 598.33 1131.69 C 599.31 1132.18 599.93 1133.18 599.93 1134.28 Z M 528.38 1172.39 L 523.04 1170.33 L 508.77 1207.75 L 514.1 1209.82 Z M 547.71 1190.67 C 548.83 1189.54 548.83 1187.72 547.71 1186.6 L 536.29 1175.08 L 532.25 1179.15 L 541.65 1188.63 L 532.25 1198.11 L 536.29 1202.18 Z M 503.71 1202.18 L 492.29 1190.67 C 491.17 1189.54 491.17 1187.72 492.29 1186.6 L 503.71 1175.08 L 507.75 1179.15 L 498.35 1188.63 L 507.75 1198.11 Z" fill="#ffffff" stroke="none" pointer-events="all" style="fill: light-dark(rgb(255, 255, 255), rgb(18, 18, 18));"/></g></g><g data-cell-id="t1XGjNwIdXhra_N-eCPQ-39"><g transform="translate(0.5,0.5)"><rect x="370" y="440" width="290" height="30" fill="none" stroke="none" pointer-events="all"/></g><g><g><switch><foreignObject style="overflow: visible; text-align: left;" pointer-events="none" width="100%" height="100%" requiredFeatures="http://www.w3.org/TR/SVG11/feature#Extensibility"><div xmlns="http://www.w3.org/1999/xhtml" style="display: flex; align-items: unsafe center; justify-content: unsafe center; width: 288px; height: 1px; padding-top: 455px; margin-left: 371px;"><div style="box-sizing: border-box; font-size: 0; text-align: center; color: #000000; "><div style="display: inline-block; font-size: 12px; font-family: Helvetica; color: light-dark(#000000, #ffffff); line-height: 1.2; pointer-events: all; white-space: normal; word-wrap: normal; "><font style="font-size: 18px;">amazon cognito</font></div></div></div></foreignObject><text x="515" y="459" fill="light-dark(#000000, #ffffff)" font-family="Helvetica" font-size="12px" text-anchor="middle">amazon cognito</text></switch></g></g></g><g data-cell-id="t1XGjNwIdXhra_N-eCPQ-40"><g transform="translate(0.5,0.5)"><rect x="485" y="830" width="60" height="30" fill="none" stroke="none" pointer-events="all"/></g><g><g><switch><foreignObject style="overflow: visible; text-align: left;" pointer-events="none" width="100%" height="100%" requiredFeatures="http://www.w3.org/TR/SVG11/feature#Extensibility"><div xmlns="http://www.w3.org/1999/xhtml" style="display: flex; align-items: unsafe center; justify-content: unsafe center; width: 58px; height: 1px; padding-top: 845px; margin-left: 486px;"><div style="box-sizing: border-box; font-size: 0; text-align: center; color: #000000; "><div style="display: inline-block; font-size: 12px; font-family: Helvetica; color: light-dark(#000000, #ffffff); line-height: 1.2; pointer-events: all; white-space: normal; word-wrap: normal; "><font style="font-size: 18px;">WAF</font></div></div></div></foreignObject><text x="515" y="849" fill="light-dark(#000000, #ffffff)" font-family="Helvetica" font-size="12px" text-anchor="middle">WAF</text></switch></g></g></g><g data-cell-id="t1XGjNwIdXhra_N-eCPQ-41"><g transform="translate(0.5,0.5)"><rect x="334" y="1310" width="350" height="30" fill="none" stroke="none" pointer-events="all"/></g><g><g><switch><foreignObject style="overflow: visible; text-align: left;" pointer-events="none" width="100%" height="100%" requiredFeatures="http://www.w3.org/TR/SVG11/feature#Extensibility"><div xmlns="http://www.w3.org/1999/xhtml" style="display: flex; align-items: unsafe center; justify-content: unsafe center; width: 348px; height: 1px; padding-top: 1325px; margin-left: 335px;"><div style="box-sizing: border-box; font-size: 0; text-align: center; color: #000000; "><div style="display: inline-block; font-size: 12px; font-family: Helvetica; color: light-dark(#000000, #ffffff); line-height: 1.2; pointer-events: all; white-space: normal; word-wrap: normal; "><font style="font-size: 18px;">AMAZON API GATEWAY</font></div></div></div></foreignObject><text x="509" y="1329" fill="light-dark(#000000, #ffffff)" font-family="Helvetica" font-size="12px" text-anchor="middle">AMAZON API GATEWAY</text></switch></g></g></g><g data-cell-id="t1XGjNwIdXhra_N-eCPQ-43"><g transform="translate(0.5,0.5)"><path d="M 510 440.54 L 520 440.46 L 521.18 590.46 L 531.68 590.38 L 516.33 609.5 L 500.68 590.62 L 511.18 590.54 Z" fill="none" stroke="#000000" stroke-miterlimit="10" pointer-events="all" style="stroke: light-dark(rgb(0, 0, 0), rgb(255, 255, 255));"/></g></g><g data-cell-id="t1XGjNwIdXhra_N-eCPQ-44"><g transform="translate(0.5,0.5)"><path d="M 514.67 820.5 L 524.67 820.5 L 524.67 1070.5 L 535.17 1070.5 L 519.67 1089.5 L 504.17 1070.5 L 514.67 1070.5 Z" fill="none" stroke="#000000" stroke-miterlimit="10" pointer-events="all" style="stroke: light-dark(rgb(0, 0, 0), rgb(255, 255, 255));"/></g></g></g></g></g><switch><g requiredFeatures="http://www.w3.org/TR/SVG11/feature#Extensibility"/><a transform="translate(0,-5)" xlink:href="https://www.drawio.com/doc/faq/svg-export-text-problems" target="_blank"><text text-anchor="middle" font-size="10px" x="50%" y="100%">Text is not SVG - cannot display</text></a></switch></svg>